<mxfile host="app.diagrams.net" modified="2024-02-09T09:49:37.680Z" agent="Mozilla/5.0 (Windows NT 10.0; Win64; x64) AppleWebKit/537.36 (KHTML, like Gecko) Chrome/121.0.0.0 Safari/537.36" etag="akbFv94ltWtryLN0C1-8" version="23.1.2" type="github">
  <diagram name="Page-1" id="Y7KtyNg5TUS7tMG_Q7iL">
    <mxGraphModel dx="86" dy="474" grid="1" gridSize="10" guides="1" tooltips="1" connect="1" arrows="1" fold="1" page="1" pageScale="1" pageWidth="850" pageHeight="1100" math="0" shadow="0">
      <root>
        <mxCell id="0" />
        <mxCell id="1" parent="0" />
        <mxCell id="WVneKOP-pQEtooWpK_C--1" style="edgeStyle=orthogonalEdgeStyle;rounded=0;orthogonalLoop=1;jettySize=auto;html=1;entryX=0;entryY=0.5;entryDx=0;entryDy=0;" edge="1" parent="1" source="WVneKOP-pQEtooWpK_C--2" target="WVneKOP-pQEtooWpK_C--4">
          <mxGeometry relative="1" as="geometry" />
        </mxCell>
        <mxCell id="WVneKOP-pQEtooWpK_C--2" value="Applicant&lt;br&gt;Website" style="shape=process;whiteSpace=wrap;html=1;backgroundOutline=1;" vertex="1" parent="1">
          <mxGeometry x="1060" y="60" width="120" height="60" as="geometry" />
        </mxCell>
        <mxCell id="WVneKOP-pQEtooWpK_C--3" value="" style="edgeStyle=orthogonalEdgeStyle;rounded=0;orthogonalLoop=1;jettySize=auto;html=1;" edge="1" parent="1" source="WVneKOP-pQEtooWpK_C--4" target="WVneKOP-pQEtooWpK_C--9">
          <mxGeometry relative="1" as="geometry" />
        </mxCell>
        <mxCell id="WVneKOP-pQEtooWpK_C--4" value="Submit Application" style="rounded=1;whiteSpace=wrap;html=1;" vertex="1" parent="1">
          <mxGeometry x="1270" y="60" width="120" height="60" as="geometry" />
        </mxCell>
        <mxCell id="WVneKOP-pQEtooWpK_C--5" style="edgeStyle=orthogonalEdgeStyle;rounded=0;orthogonalLoop=1;jettySize=auto;html=1;entryX=0;entryY=0.5;entryDx=0;entryDy=0;" edge="1" parent="1" source="WVneKOP-pQEtooWpK_C--6" target="WVneKOP-pQEtooWpK_C--2">
          <mxGeometry relative="1" as="geometry" />
        </mxCell>
        <mxCell id="WVneKOP-pQEtooWpK_C--6" value="Applicant" style="shape=umlActor;verticalLabelPosition=bottom;verticalAlign=top;html=1;outlineConnect=0;" vertex="1" parent="1">
          <mxGeometry x="926" y="60" width="30" height="60" as="geometry" />
        </mxCell>
        <mxCell id="WVneKOP-pQEtooWpK_C--7" value="to : HR" style="verticalLabelPosition=bottom;shadow=0;dashed=0;align=center;html=1;verticalAlign=top;strokeWidth=1;shape=mxgraph.mockup.misc.mail2;strokeColor=#999999;" vertex="1" parent="1">
          <mxGeometry x="1590" y="75" width="40" height="30" as="geometry" />
        </mxCell>
        <mxCell id="WVneKOP-pQEtooWpK_C--8" value="" style="edgeStyle=orthogonalEdgeStyle;rounded=0;orthogonalLoop=1;jettySize=auto;html=1;" edge="1" parent="1" source="WVneKOP-pQEtooWpK_C--9" target="WVneKOP-pQEtooWpK_C--7">
          <mxGeometry relative="1" as="geometry" />
        </mxCell>
        <mxCell id="WVneKOP-pQEtooWpK_C--9" value="application PDF" style="ellipse;whiteSpace=wrap;html=1;aspect=fixed;" vertex="1" parent="1">
          <mxGeometry x="1440" y="50" width="80" height="80" as="geometry" />
        </mxCell>
      </root>
    </mxGraphModel>
  </diagram>
</mxfile>
